HIERARCHY
ROOT Hips
{
     OFFSET 59.29400 96.16910 9.37493
     CHANNELS 6 Xposition Yposition Zposition Zrotation Xrotation Yrotation
     JOINT Spine
     {
          OFFSET 0.00000 11.89050 0.00000
          CHANNELS 3 Zrotation Xrotation Yrotation
          JOINT Spine1
          {
               OFFSET -0.00000 25.65740 0.12766
               CHANNELS 3 Zrotation Xrotation Yrotation
               JOINT HEad
               {
                    OFFSET -0.00000 8.73416 0.01134
                    CHANNELS 3 Zrotation Xrotation Yrotation
                    End Site
                    {
                         OFFSET -0.29000 12.77420 2.51395
                    }
               }
               JOINT LeftShoulder1
               {
                    OFFSET 8.99000 -0.36225 -0.22000
                    CHANNELS 3 Zrotation Xrotation Yrotation
                    JOINT LeftArm
                    {
                         OFFSET 10.28270 -0.00338 0.32212
                         CHANNELS 3 Zrotation Xrotation Yrotation
                         JOINT LeftForeArm
                         {
                              OFFSET 32.76690 0.09914 -1.42434
                              CHANNELS 3 Zrotation Xrotation Yrotation
                              JOINT LeftHand
                              {
                                   OFFSET 27.56430 0.08536 1.02216
                                   CHANNELS 3 Zrotation Xrotation Yrotation
                                   End Site
                                   {
                                        OFFSET 16.74430 -0.60000 1.50291
                                   }
                              }
                         }
                    }
               }
               JOINT RightShoulder
               {
                    OFFSET -8.99000 -0.36225 -0.22000
                    CHANNELS 3 Zrotation Xrotation Yrotation
                    JOINT RightArm
                    {
                         OFFSET -10.28270 -0.00338 0.32212
                         CHANNELS 3 Zrotation Xrotation Yrotation
                         JOINT RightForeArm
                         {
                              OFFSET -32.89710 0.09914 -1.42434
                              CHANNELS 3 Zrotation Xrotation Yrotation
                              JOINT RightHand
                              {
                                   OFFSET -27.49210 0.08536 1.02216
                                   CHANNELS 3 Zrotation Xrotation Yrotation
                                   End Site
                                   {
                                        OFFSET -16.63120 -0.60000 1.50291
                                   }
                              }
                         }
                    }
               }
          }
     }
     JOINT LeftUpLeg
     {
          OFFSET 8.94580 -8.66707 0.10165
          CHANNELS 3 Zrotation Xrotation Yrotation
          JOINT LeftLeg
          {
               OFFSET 0.00000 -44.42270 1.37270
               CHANNELS 3 Zrotation Xrotation Yrotation
               JOINT LeftFoot
               {
                    OFFSET -0.25355 -42.09240 -1.46059
                    CHANNELS 3 Zrotation Xrotation Yrotation
                    JOINT LeftToes
                    {
                         OFFSET -0.04000 -4.41509 8.49910
                         CHANNELS 3 Zrotation Xrotation Yrotation
                         End Site
                         {
                              OFFSET 0.08000 -0.04745 9.77979
                         }
                    }
               }
          }
     }
     JOINT RightUpLeg
     {
          OFFSET -8.94580 -8.66707 0.10165
          CHANNELS 3 Zrotation Xrotation Yrotation
          JOINT RightLeg
          {
               OFFSET -0.00000 -44.42270 1.37270
               CHANNELS 3 Zrotation Xrotation Yrotation
               JOINT RightFoot
               {
                    OFFSET 0.25355 -42.09240 -1.46059
                    CHANNELS 3 Zrotation Xrotation Yrotation
                    JOINT RightToes
                    {
                         OFFSET 0.04000 -4.41509 8.49910
                         CHANNELS 3 Zrotation Xrotation Yrotation
                         End Site
                         {
                              OFFSET -0.08000 -0.13745 9.77979
                         }
                    }
               }
          }
     }
}
MOTION
Frames: 19
Frame Time: 0.01667
12.05650 94.72970 -39.18950 -10.34730 -13.92450 -40.48000 -3.75616 12.29560 -0.87504 -1.43056 24.34610 -2.73567 -12.39870 -1.61486 22.04880 -0.00000 0.00000 -0.00000 -152.07001 -64.95230 -131.44701 -47.59850 62.15290 -68.33120 21.72200 6.67787 -13.10190 7.71785 0.30131 -0.33799 87.75790 -1.25414 80.67840 3.63854 31.73520 101.10300 9.78619 10.84770 6.11260 26.89750 -4.44464 -18.20410 -32.68660 11.49260 77.93750 -5.40297 12.63560 0.86171 7.84360 -12.00130 -55.63220 -26.81660 11.04630 16.11970 38.41870 8.53711 -5.09160 -4.50950 -18.77500 -0.69545 11.65190 6.35531 -57.78160 
12.00760 94.72300 -39.00240 -10.31710 -13.81670 -40.52410 -3.68213 12.28400 -0.88479 -1.43711 24.31710 -2.70433 -12.97410 -1.60040 22.12160 -0.00000 0.00000 -0.00000 -149.80701 -65.10920 -129.45700 -46.54560 61.45950 -69.28170 21.65010 6.69441 -13.07410 7.71793 0.30418 -0.31215 87.87660 -1.21592 80.72310 3.55158 31.67390 101.20100 9.70084 10.84460 6.16410 27.01140 -4.73047 -18.13730 -32.60750 11.47430 78.81610 -6.04458 11.48600 0.92172 8.27580 -10.09790 -54.83400 -26.86730 11.05770 16.29710 38.47500 8.35516 -5.15187 -4.50218 -18.76870 -0.69442 11.77970 6.56637 -57.93020 
11.98840 94.69160 -38.77650 -10.31240 -13.68000 -40.56890 -3.60770 12.27870 -0.89711 -1.43982 24.30060 -2.67899 -13.42830 -1.56355 22.23150 -0.00000 0.00000 -0.00000 -147.15500 -65.38300 -127.17900 -45.65080 60.51920 -70.02260 21.65320 6.67417 -13.17920 7.76894 0.31119 -0.25542 87.91770 -1.18620 80.71580 3.40015 31.58250 101.26600 9.53479 10.83640 6.24122 27.15360 -5.04531 -18.09530 -32.54840 11.47430 79.76870 -6.75656 10.39420 0.98310 8.82154 -7.61342 -54.01710 -26.91790 11.07080 16.43100 38.55090 8.19624 -5.21909 -4.50229 -18.78030 -0.69498 11.88900 6.76683 -58.01860 
12.00020 94.63860 -38.49920 -10.31100 -13.50320 -40.63820 -3.51981 12.26690 -0.90526 -1.44699 24.27310 -2.63542 -13.72650 -1.48861 22.38650 -0.00000 0.00000 -0.00000 -144.74500 -65.66950 -125.11800 -45.09840 59.59180 -70.41510 21.67940 6.63403 -13.37050 7.89327 0.31957 -0.19616 87.85590 -1.19823 80.66800 3.19858 31.49670 101.27900 9.27810 10.82350 6.36430 27.31850 -5.42230 -18.15910 -32.57440 11.49840 80.88130 -7.51608 9.35699 1.04135 9.45377 -4.61397 -53.22740 -26.97600 11.05790 16.45940 38.61400 8.11182 -5.24617 -4.50778 -18.80080 -0.69651 11.93770 6.90382 -57.97070 
12.04410 94.57160 -38.16270 -10.29460 -13.28400 -40.74740 -3.41217 12.24300 -0.90579 -1.46661 24.22540 -2.56010 -13.87040 -1.41229 22.59690 -0.00000 0.00000 -0.00000 -143.25101 -65.90340 -123.81600 -44.98490 58.92130 -70.41960 21.67650 6.59637 -13.57300 8.04076 0.32618 -0.15647 87.73120 -1.24809 80.58680 2.96618 31.42070 101.23200 8.97290 10.81050 6.54533 27.49760 -5.84513 -18.28580 -32.68590 11.54030 82.07810 -8.24526 8.41280 1.08788 10.07770 -1.42034 -52.42680 -27.05950 10.99220 16.37190 38.65720 8.12522 -5.21116 -4.51331 -18.81570 -0.69778 11.93170 6.98406 -57.80060 
12.12140 94.49780 -37.77020 -10.26890 -13.03720 -40.88790 -3.30033 12.21460 -0.89818 -1.49816 24.17120 -2.46123 -13.92740 -1.38880 22.85080 -0.00000 0.00000 -0.00000 -143.02800 -66.06820 -123.57400 -45.28750 58.64830 -70.09690 21.65120 6.57274 -13.72030 8.14809 0.32987 -0.13791 87.59920 -1.31189 80.48370 2.71833 31.33950 101.13900 8.66996 10.79960 6.76153 27.69770 -6.26353 -18.36100 -32.85020 11.59910 83.18630 -8.90422 7.60805 1.12317 10.59340 1.61183 -51.54580 -27.18600 10.89080 16.21770 38.69880 8.19317 -5.14033 -4.51758 -18.81330 -0.69810 11.92070 7.08768 -57.56850 
12.23250 94.41940 -37.32990 -10.25390 -12.78380 -41.03460 -3.21228 12.19600 -0.88421 -1.53419 24.13540 -2.36132 -13.98460 -1.47591 23.11500 -0.00000 0.00000 -0.00000 -143.72400 -66.18400 -124.11300 -45.75400 58.69140 -69.69070 21.64500 6.56330 -13.77580 8.19386 0.33171 -0.12782 87.47640 -1.36612 80.37710 2.45121 31.24170 101.03100 8.37913 10.78610 6.94382 27.93550 -6.63385 -18.29500 -33.04450 11.68040 84.08850 -9.47733 6.95307 1.14984 10.94810 4.22028 -50.59550 -27.36560 10.80380 16.06180 38.76420 8.23569 -5.08665 -4.52423 -18.78740 -0.69751 11.94540 7.28939 -57.31050 
12.37510 94.33550 -36.84590 -10.25900 -12.53890 -41.17350 -3.16289 12.19440 -0.86571 -1.56914 24.13040 -2.27505 -14.10130 -1.69511 23.36740 -0.00000 0.00000 -0.00000 -144.59801 -66.28900 -124.81100 -46.03900 58.82930 -69.50510 21.68250 6.56477 -13.73550 8.16818 0.33493 -0.09663 87.35660 -1.41705 80.27470 2.15247 31.12980 100.93200 8.05318 10.76080 7.02795 28.21540 -6.93172 -18.04980 -33.25070 11.78480 84.80550 -9.92189 6.42652 1.16459 11.16570 6.26801 -49.74010 -27.59910 10.76400 15.93130 38.85840 8.21559 -5.07359 -4.53915 -18.74420 -0.69692 12.00920 7.58741 -57.04740 
12.54330 94.24660 -36.31860 -10.27610 -12.30970 -41.30500 -3.15473 12.20520 -0.84052 -1.60383 24.14610 -2.19925 -14.30800 -1.98359 23.60510 -0.00000 0.00000 -0.00000 -145.19099 -66.42130 -125.26800 -46.00970 58.90630 -69.63210 21.75840 6.56925 -13.64630 8.07870 0.34332 -0.01159 87.21300 -1.50543 80.16430 1.81601 31.00690 100.83700 7.63659 10.71990 7.02783 28.51880 -7.15494 -17.62370 -33.43790 11.91940 85.44010 -10.20840 6.00710 1.16535 11.32460 7.76680 -49.18680 -27.87890 10.77630 15.80570 38.96110 8.15136 -5.05811 -4.57009 -18.70380 -0.69803 12.09790 7.90977 -56.84810 
12.73150 94.15300 -35.75040 -10.29320 -12.08990 -41.42120 -3.19412 12.21870 -0.80381 -1.64244 24.16230 -2.12438 -14.58030 -2.24361 23.83540 -0.00000 0.00000 -0.00000 -145.59200 -66.58850 -125.55500 -45.86670 58.92160 -69.85530 21.84150 6.56641 -13.59010 7.98368 0.35848 0.13500 86.99850 -1.66375 80.03480 1.42853 30.85530 100.72000 7.13465 10.67040 7.02439 28.83270 -7.33118 -17.03070 -33.58060 12.10230 86.06200 -10.37590 5.66448 1.15665 11.48930 8.87940 -48.97760 -28.18820 10.83750 15.66540 39.05760 8.05444 -4.96497 -4.62084 -18.66690 -0.70124 12.18690 8.12578 -56.83500 
12.93680 94.05140 -35.14550 -10.30430 -11.86180 -41.49740 -3.28018 12.22560 -0.75915 -1.68823 24.15970 -2.05278 -14.84250 -2.43031 24.07370 -0.00000 0.00000 -0.00000 -146.19200 -66.77230 -126.01600 -45.93800 58.96880 -69.85370 21.88820 6.55524 -13.60910 7.93985 0.37973 0.32921 86.69420 -1.88744 79.89370 0.93982 30.63450 100.57300 6.61606 10.62390 7.09381 29.17300 -7.50293 -16.29480 -33.68360 12.33240 86.68690 -10.51400 5.34111 1.14524 11.67910 9.84358 -48.97200 -28.50720 10.94360 15.51710 39.15670 7.90759 -4.75439 -4.68297 -18.58920 -0.70353 12.22320 8.06969 -57.07470 
13.15640 93.93380 -34.50260 -10.30170 -11.61090 -41.50990 -3.39228 12.21230 -0.72001 -1.74552 24.11310 -1.99635 -15.04170 -2.54857 24.32590 -0.00000 0.00000 -0.00000 -147.17900 -66.98700 -126.83100 -46.36040 59.10320 -69.49480 21.87870 6.54477 -13.67220 7.94435 0.40457 0.54764 86.32470 -2.15199 79.75870 0.28666 30.30060 100.37900 6.16447 10.59220 7.30722 29.55860 -7.70260 -15.44250 -33.76710 12.58320 87.33170 -10.70810 4.96809 1.13497 11.87900 10.83670 -48.98310 -28.83260 11.07740 15.37690 39.28310 7.70775 -4.47765 -4.74209 -18.43420 -0.70155 12.15100 7.67442 -57.46810 
13.38650 93.79030 -33.81260 -10.28110 -11.32640 -41.44830 -3.49963 12.16450 -0.69591 -1.81657 23.99700 -1.95673 -15.17430 -2.61684 24.57280 -0.00000 0.00000 -0.00000 -148.17500 -67.32260 -127.69400 -46.90640 59.23800 -68.98020 21.81980 6.54551 -13.71880 7.97275 0.42947 0.76167 85.91540 -2.44155 79.65790 -0.53866 29.84010 100.07200 5.84226 10.58530 7.75403 30.00130 -7.94904 -14.48790 -33.84630 12.82940 88.02940 -11.00570 4.46984 1.12337 12.05350 11.96990 -48.82090 -29.17420 11.21850 15.26590 39.46810 7.46508 -4.26191 -4.79547 -18.24260 -0.69702 11.99230 7.10647 -57.82930 
13.62310 93.61080 -33.06340 -10.26310 -10.99650 -41.30540 -3.57595 12.08100 -0.68691 -1.89196 23.81090 -1.92566 -15.24580 -2.65934 24.78690 -0.00000 0.00000 -0.00000 -148.46300 -67.92010 -128.02400 -47.12420 59.19470 -68.68840 21.69360 6.56663 -13.71600 8.01642 0.45330 0.96212 85.46960 -2.75307 79.64280 -1.49770 29.28270 99.58400 5.66026 10.60430 8.43802 30.52420 -8.26463 -13.43720 -33.93020 13.07630 88.84240 -11.43590 3.78664 1.10549 12.16520 13.37180 -48.30790 -29.51780 11.36500 15.19080 39.72800 7.20497 -4.20767 -4.86089 -18.14120 -0.69804 11.88000 6.71182 -58.08190 
13.89150 93.29270 -32.18920 -10.44080 -10.48950 -41.08070 -3.14183 11.93540 -0.75091 -1.87562 23.56810 -1.90307 -15.25560 -2.69913 24.94660 -0.00000 0.00000 -0.00000 -147.23100 -68.93030 -127.15100 -46.59620 58.76290 -68.91170 21.42610 6.61784 -13.67520 8.05431 0.47745 1.16529 84.98940 -3.08071 79.78310 -2.60612 28.66660 98.93940 5.58558 10.63700 9.18278 31.31350 -9.01579 -12.20770 -34.13120 14.04330 89.94800 -12.40820 2.87791 1.11089 12.17410 15.16040 -47.30370 -29.62730 11.40700 15.01200 40.09380 7.33395 -4.34018 -4.95672 -18.45970 -0.72361 11.97810 6.81274 -58.30430 
14.19880 92.79780 -31.16160 -10.90610 -9.78316 -40.74690 -2.01240 11.71730 -0.90635 -1.60160 23.27050 -1.89643 -15.18780 -2.74240 25.03600 -0.00000 0.00000 -0.00000 -143.03500 -70.50510 -123.79400 -44.97860 57.58640 -69.82640 20.89750 6.71479 -13.61400 8.03347 0.50234 1.38810 84.50870 -3.41669 80.14900 -3.97444 28.00760 98.24720 5.61989 10.67100 9.72548 32.47050 -10.30050 -10.76180 -34.49760 15.91800 91.43520 -14.09260 1.85551 1.14823 11.99920 17.40760 -45.62820 -29.41090 11.37240 14.66420 40.54580 7.98128 -4.61772 -5.08955 -19.32240 -0.78252 12.37340 7.53724 -58.60470 
14.50960 92.18130 -30.01670 -11.48710 -9.12638 -40.26760 -0.76443 11.47940 -1.06602 -1.43857 22.97820 -1.89652 -15.00540 -2.75824 25.04040 -0.00000 0.00000 -0.00000 -132.38499 -72.60340 -114.63800 -41.88100 54.97870 -71.61050 19.95490 6.88718 -13.49680 7.90001 0.52735 1.64277 84.09690 -3.76674 80.80150 -5.72287 27.31070 97.63260 5.84488 10.70550 9.85075 33.74610 -11.77740 -9.14298 -34.94610 18.11800 93.22660 -16.25710 0.94654 1.20734 11.51410 20.08630 -43.09380 -29.15120 11.39300 14.25850 41.03590 9.01385 -5.03719 -5.25117 -20.65320 -0.87279 13.02940 8.77296 -59.01200 
14.81920 91.40990 -28.74990 -12.23760 -8.52029 -39.66930 0.65804 11.19830 -1.20154 -1.14627 22.64450 -1.86526 -14.69290 -2.66283 24.93100 -0.00000 0.00000 -0.00000 -108.94500 -73.91300 -93.43420 -37.06460 49.86530 -74.24990 18.40120 7.18275 -13.19660 7.62321 0.55168 1.93893 83.84700 -4.14187 81.78570 -7.85485 26.60090 97.18980 6.36711 10.74370 9.43240 35.19730 -13.49120 -7.31208 -35.52200 20.76730 95.39170 -18.95680 0.35087 1.31940 10.62890 22.97310 -39.73640 -28.81640 11.50440 13.80580 41.56850 10.42970 -5.56283 -5.43584 -22.33570 -0.99060 13.78970 10.19780 -59.45570 
15.13640 90.46110 -27.32080 -13.25160 -7.92178 -38.97370 2.43956 10.82660 -1.30624 -0.75496 22.23890 -1.75175 -14.28330 -2.33629 24.66950 -0.00000 0.00000 -0.00000 -76.12780 -70.42670 -63.37040 -31.09540 41.10680 -76.93770 15.95110 7.65207 -12.55340 7.19314 0.57310 2.27240 83.87360 -4.52290 83.12310 -10.22700 25.92680 96.98060 7.22931 10.77800 8.44655 36.94390 -15.47340 -5.20335 -36.31730 23.98370 98.03260 -22.16630 0.12224 1.50767 9.39424 25.86480 -35.89070 -28.36330 11.84690 13.39190 42.16110 11.97990 -6.13492 -5.60509 -24.10890 -1.11806 14.43560 11.39040 -59.82920 
